<svg width="1414" height="149" viewBox="0 0 1414 149" fill="none" xmlns="http://www.w3.org/2000/svg">
<path d="M860.909 0H1378C1392.87 0 1400.31 0 1406.47 1.31114C1429.65 6.23804 1447.76 24.3461 1452.69 47.5253C1454 53.6937 1454 61.1292 1454 76C1454 90.8708 1454 98.3063 1452.69 104.475C1447.76 127.654 1429.65 145.762 1406.47 150.689C1400.31 152 1392.87 152 1378 152H-2.5C-25.9721 152 -45 132.972 -45 109.5C-45 86.0279 -25.9721 67 -2.49999 67H701.223C721.454 67 731.57 67 740.898 63.8542C742.905 63.1772 744.875 62.3945 746.8 61.5091C755.744 57.395 763.101 50.4525 777.815 36.5677L784.317 30.4323C799.031 16.5475 806.388 9.60504 815.332 5.49085C817.257 4.60553 819.227 3.82275 821.234 3.14581C830.562 0 840.678 0 860.909 0Z" fill="#414A8B"/>
</svg>
